<?xml version="1.0" encoding="utf-8"?>
<svg viewBox="0 0 500 500" xmlns="http://www.w3.org/2000/svg">
  <path d="M 150 0 L 350 0 C 432.843 0 500 67.157 500 150 L 500 350 C 500 432.843 432.843 500 350 500 L 150 500 C 67.157 500 0 432.843 0 350 L 0 150 C 0 67.157 67.157 0 150 0 Z M 369.124 43.752 C 321.007 43.752 282 82.759 282 130.876 C 282 143.964 284.886 156.379 290.057 167.517 L 167.517 290.057 C 156.379 284.886 143.964 282 130.876 282 C 82.759 282 43.752 321.007 43.752 369.124 C 43.752 417.241 82.759 456.248 130.876 456.248 C 178.993 456.248 218 417.241 218 369.124 C 218 356.036 215.114 343.621 209.943 332.483 L 332.483 209.943 C 343.621 215.114 356.036 218 369.124 218 C 417.241 218 456.248 178.993 456.248 130.876 C 456.248 82.759 417.241 43.752 369.124 43.752 Z" style="fill: rgb(24, 208, 73);"/>
</svg>